<?xml version="1.0" encoding="utf-8"?>
<!-- Generator: Adobe Illustrator 25.0.0, SVG Export Plug-In . SVG Version: 6.00 Build 0)  -->
<svg version="1.1" id="Camada_1" xmlns="http://www.w3.org/2000/svg" xmlns:xlink="http://www.w3.org/1999/xlink" x="0px" y="0px"
	 viewBox="0 0 595.3 841.9" style="enable-background:new 0 0 595.3 841.9;" xml:space="preserve">
<style type="text/css">
	.st0{fill:#010101;}
</style>
<g>
	<path class="st0" d="M133.3,539.5c5.1-0.1,8.3-3.1,8.2-7.6c-0.1-4.4-3.2-7.3-8.1-7.3c-5.7-0.1-11.4,0.2-17.1-0.1
		c-4.6-0.2-7.9,1.3-10.1,5.3c0,1.5,0,3,0,4.5c2.1,4.1,5.5,5.6,10.1,5.3C121.8,539.3,127.6,539.6,133.3,539.5z"/>
	<path class="st0" d="M180.2,568.5c-8.3-0.1-16.7,0-25,0c-8.3,0-16.7,0-25,0c-5.3,0-8.5,2.8-8.5,7.3c-0.1,4.6,3.2,7.6,8.6,7.6
		c16.7,0,33.4,0,50.1,0c5.2,0,8.5-3,8.6-7.4C189,571.6,185.5,568.5,180.2,568.5z"/>
	<path class="st0" d="M224.8,532.2c0.1-4.5-3.4-7.6-8.7-7.6c-7.5,0-15,0-22.4,0c-7.7,0-15.5,0-23.2,0c-5.2,0-8.4,3-8.3,7.5
		c0,4.5,3.2,7.4,8.4,7.4c15.2,0,30.4,0,45.6,0C221.3,539.5,224.7,536.5,224.8,532.2z"/>
	<path class="st0" d="M458.5,486.6c-9.6-6.7-20.8-9.4-31.7-12.7c-16.1-4.8-26.8-15-32.7-30.6c-14.3-37.4-28.8-74.6-43.2-112
		c-2.3-6-5.6-11.4-10.6-15.5c-10.3-8.5-21.8-9.8-34.5-6.6c-20.4,5-41.1-5.5-49.4-24.7c-2.6-6-3.7-12.4-5.6-18.5
		c-1.7-5.4-3.7-7-9.4-7c-44,0.4-82.9,32.7-91.7,76.2c-0.4,1.9-1,3-2.8,3.9c-29.5,16.2-34.1,54.9-9.2,77.7
		c21.2,19.3,42.5,38.5,63.7,57.8c2,1.8,3.9,3.6,6.6,6.1c-2.3,0-3.6,0-5,0c-21.9,0-43.9,0-65.8,0c-1.6,0-3.3,0-4.8,0.4
		c-3.7,0.8-5.9,4-5.6,7.7c0.3,3.5,2.8,6.3,6.4,6.7c1.4,0.2,2.7,0.1,4.1,0.1c27.7,0,55.4,0.1,83-0.1c3.1,0,5.3,1,7.6,3
		c27.2,23.3,51.2,50.3,82.2,70c-29.4,0-58.3,0-87.2,0c-1.5,0-3,0-4.5,0.2c-3.5,0.5-6,3.4-6.2,6.9c-0.2,5.1,3.2,7.9,9.5,7.9
		c60.1,0,120.2,0.1,180.3,0.1c16,0,31.9,0.2,47.9,0c22-0.3,39.6-18.2,39.2-40.1C488.7,519.3,478.3,500.4,458.5,486.6z M308.9,324.6
		c2.7-1.4,5.5-2.3,8.6-2.2c7.8,0.2,14,3.6,17.6,10.5c2,3.8,3.3,8,5,12c0.7,1.6-0.1,2.2-1.4,2.8c-2.6,1.1-5.3,2.3-7.8,3.5
		c-4.2,2.1-5.8,6-4.1,9.9c1.7,4,5.9,5.5,10.3,3.7c2.4-1,4.8-2.1,7.1-3.3c1.4-0.7,2.1-0.5,2.7,1.1c2.4,6.5,4.9,13,7.5,19.5
		c0.7,1.8,0,2.4-1.5,3c-2.9,1.2-5.7,2.5-8.5,3.8c-4.1,2-5.7,6.1-4,9.9c1.6,3.8,5.9,5.3,10.1,3.6c2.4-1,4.8-2,7.1-3.2
		c1.9-1,3-1.3,4,1.4c2.2,6.3,4.6,12.6,7.2,18.8c1,2.3,0.3,3.1-1.6,3.9c-1.6,0.6-3.2,1.3-4.7,2.2c-3.8,2-5.1,5.7-3.6,9.5
		c1.6,3.8,5.4,5.5,9.6,4.2c0.5-0.2,0.9-0.4,1.4-0.6c5.5-2.3,5.5-2.3,7.6,3.1c2.7,7.1,5.1,14.3,9.4,20.6c0.9,1.4,0.7,2.1-0.6,3
		c-7.2,4.9-14.5,9.7-21.9,14.3c-2.4,1.5-2.6-0.3-3.4-1.6c-10-17.2-20-34.4-29.9-51.7c-11.4-19.7-22.9-39.3-34.2-59.1
		C287.8,351.4,293.3,332.6,308.9,324.6z M164.9,335.2c3.5-13.9,10.3-26,20.1-36.5c1.6-1.7,2.6-1.6,4.3-0.4
		c15.6,10.9,23.5,25.9,24.2,42.9c-0.1,13.7-3.6,24.4-10.4,34c-1.4,2-2.3,2.6-4.2,0.4c-10.8-12-21.8-24-32.7-35.9
		C164.9,338.4,164.4,337.2,164.9,335.2z M470.5,556.8c-4.6,7.2-11.2,11.7-19.7,11.7c-28.9,0.1-57.9,0.9-86.8-0.5
		c-27-1.4-50.4-11.9-70.4-30c-48.1-43.5-96-87.1-144.1-130.6c-8.9-8-14-17.4-12.7-29.6c1.2-11.1,6.8-19.5,16.5-25.3
		c2.2-1.3,3.5-1,5.3,1c23.1,25.4,46.2,50.7,69.3,76c0.9,1,1.8,2.1,2.8,3c3.3,2.9,7.5,3,10.4,0.1c2.8-2.7,3.2-6.9,0.4-10.1
		c-4-4.6-8.2-9.1-12.3-13.6c-5.2-5.7-10.3-11.5-15.7-17.1c-1.9-2-2.1-3.1-0.3-5.4c20.5-26,20-61.7-1-87.2c-3.7-4.5-8.1-8.4-13-12.2
		c11-7,22.5-11.1,34.9-12.6c2.9-0.3,3.7,0.6,4.2,3c2.1,9.6,5.8,18.5,12,26.2c8.6,10.5,19.5,17.3,32.6,20.3c2,0.5,3.2,0.6,1.6,3.1
		c-9.7,15.9-9.9,32-0.6,48.1c21.1,36.5,42.2,73,63.5,109.4c1.5,2.7,1.4,3.6-1.5,5c-8.1,3.8-16.1,7.7-24.4,11.2
		c-2.2,0.9-3.6,0.9-5.6-0.7c-10.1-7.8-19-16.9-27.5-26.4c-0.9-1-1.8-2.1-2.9-2.9c-2.9-2.1-7.1-1.6-9.6,0.9c-2.5,2.6-2.9,6.6-0.6,9.6
		c2.4,3,5.1,5.8,7.7,8.6c32.3,34.7,71.8,54.9,118.9,60.1c21.7,2.4,43.6,0.8,65.4,1.2c1.7,0,4.1-0.9,4.8,0.6
		C473.1,553.4,471.4,555.2,470.5,556.8z M471.1,536.3c-23-0.5-46.1,1.2-69.1-1.3c-24.2-2.6-46.7-10.4-68.3-23
		c10.2-4.6,19.7-9.2,28.9-14.3c11.1-6.2,21.9-12.8,32.2-20.3c2.3-1.7,3.8-2.1,6.3,0c8,6.7,17.7,9.9,27.6,12.6
		c10.1,2.9,19.9,6.4,27.8,13.7c8.8,8.1,14.4,18,16.9,29.6C473.7,535.4,473.5,536.3,471.1,536.3z"/>
	<path class="st0" d="M258.7,444.6c-3.9,0-7.4,3.4-7.5,7.3c-0.1,4.2,3.3,7.6,7.5,7.6c4.1,0,7.3-3.2,7.4-7.2
		C266.3,448.1,262.8,444.6,258.7,444.6z"/>
</g>
</svg>
