<?xml version="1.0" encoding="utf-8"?>
<!-- Generator: Adobe Illustrator 25.0.0, SVG Export Plug-In . SVG Version: 6.00 Build 0)  -->
<svg version="1.1" id="Camada_1" xmlns="http://www.w3.org/2000/svg" xmlns:xlink="http://www.w3.org/1999/xlink" x="0px" y="0px"
	 viewBox="0 0 111.9 91" style="enable-background:new 0 0 111.9 91;" xml:space="preserve">
<style type="text/css">
	.st0{fill:#020203;}
</style>
<path class="st0" d="M77.8,62.6l7-3.4L65.2,18.6H75l3.4,5.8l7.5-3.4L80,10.8H53l10.9,23.1h-21l-4.1-7.3h8.1v-7.8H23.4v7.8h7.2
	l6.7,11.6L24.7,58.4l4,6.4h26l3.1-6.9l-10-16.2h19.9L77.8,62.6z M41.3,46.2L47.9,57H34.7L41.3,46.2z"/>
<path class="st0" d="M39.8,61c0,6.6-5.4,12-12,12s-12-5.4-12-12c0-6.6,5.4-12,12-12c2.5,0,4.8,0.8,6.7,2.1l3.3-6.4
	c-2.9-1.8-6.3-2.8-10-2.8C17.2,41.8,8.6,50.4,8.6,61c0,10.6,8.6,19.2,19.2,19.2S47,71.6,47,61H39.8z"/>
<path class="st0" d="M82,41.8c-10.6,0-19.2,8.6-19.2,19.2c0,10.6,8.6,19.2,19.2,19.2s19.2-8.6,19.2-19.2
	C101.2,50.4,92.6,41.8,82,41.8z M82,73c-6.6,0-12-5.4-12-12c0-6.6,5.4-12,12-12s12,5.4,12,12C94,67.6,88.6,73,82,73z"/>
</svg>
