<?xml version="1.0" encoding="utf-8"?>
<!-- Generator: Adobe Illustrator 25.0.0, SVG Export Plug-In . SVG Version: 6.00 Build 0)  -->
<svg version="1.1" id="Camada_1" xmlns="http://www.w3.org/2000/svg" xmlns:xlink="http://www.w3.org/1999/xlink" x="0px" y="0px"
	 viewBox="0 0 87.5 91" style="enable-background:new 0 0 87.5 91;" xml:space="preserve">
<style type="text/css">
	.st0{fill:#020203;}
</style>
<path class="st0" d="M85.6,48.1l-20-9.3l-28-17.8h-3l-7.3,7l-12.6,0.2l-7.5-3.6l-6.1,2.7v21.5l4.6,3.8l-4.6,3.8V70l83.6-0.1l2.2-3.1
	L85.6,48.1z M80.4,62.8l-72-0.6l-0.1-1.9l7.4-7.8l-7-6.1l0-13.7l4.7,2.3h17.3l5.9-6.3L63.1,45l16.3,8L80.4,62.8z"/>
<polygon class="st0" points="39.7,43.2 70,43.2 55.8,34.8 41.3,34.8 32.6,27.7 18.1,28.2 "/>
</svg>
