<?xml version="1.0" encoding="utf-8"?>
<!-- Generator: Adobe Illustrator 25.0.0, SVG Export Plug-In . SVG Version: 6.00 Build 0)  -->
<svg version="1.1" id="Camada_1" xmlns="http://www.w3.org/2000/svg" xmlns:xlink="http://www.w3.org/1999/xlink" x="0px" y="0px"
	 viewBox="0 0 87.5 91" style="enable-background:new 0 0 87.5 91;" xml:space="preserve">
<style type="text/css">
	.st0{fill:#020203;}
</style>
<path class="st0" d="M85.5,79.2l-1-14.1l-15-9.1l-7.1-30.5l-3.3-3l-10.8-0.1l-7.8-6.7l-3.6-8.4l-6.6-0.5l-12,14.8l0.1,4.7l-3.6,0
	L2.5,39.2l49.6,44l30.5,0.2L85.5,79.2z M55.5,75.3L13.8,38.5l3.9-4l8.2,0l0.4-10.2l7.1-8.1l1,4.3l13.4,10.9l8.6-0.7l6.2,29.8
	L77,69.3l0.3,6.1L55.5,75.3z"/>
<polygon class="st0" points="42.7,40.9 62.6,60.6 63.7,50.7 50.5,37.6 49.6,24.7 41.5,21.6 "/>
<rect x="9.5" y="76.4" class="st0" width="26" height="7.8"/>
</svg>
