<?xml version="1.0" encoding="utf-8"?>
<!-- Generator: Adobe Illustrator 25.0.0, SVG Export Plug-In . SVG Version: 6.00 Build 0)  -->
<svg version="1.1" id="Camada_1" xmlns="http://www.w3.org/2000/svg" xmlns:xlink="http://www.w3.org/1999/xlink" x="0px" y="0px"
	 viewBox="0 0 111.9 91" style="enable-background:new 0 0 111.9 91;" xml:space="preserve">
<style type="text/css">
	.st0{fill:#020203;}
</style>
<path class="st0" d="M88.8,29.4l4.4-4.4l0-8.4l-8-7.9l-8.4,0l-4.4,4.4L61.1,1.8h0L44.8,18L56,29.3L39.6,45.5L28.7,34.5h0L12.3,50.8
	l10.9,10.9l-3.7,3.6l0,8.4l8,7.9l8.3,0l3.8-3.6l11.2,11.2h0L67.1,73l-11-11l2.8-2.7l13.5-13.5l10.7,10.7h0l16.4-16.3L88.8,29.4z
	 M81,15.6l5.2,5.2l-3,3L78,18.6L81,15.6z M77.6,29.4l-5.3,5.2l-5.2-5.2l5.3-5.2L77.6,29.4z M55.9,18.1l5.2-5.2l5.7,5.7l-5.3,5.2
	L55.9,18.1z M23.5,50.9l5.2-5.2l5.3,5.3l-5.3,5.2L23.5,50.9z M39.6,56.5l5.2,5.2l-5.3,5.2l-5.2-5.2L39.6,56.5z M31.7,74.7l-5.2-5.2
	l2.3-2.3l5.2,5.2L31.7,74.7z M56,72.9l-5.2,5.2l-5.5-5.5l5.3-5.2L56,72.9z M50.4,56.2L45.2,51l16.4-16.2l5.2,5.2L50.4,56.2z
	 M83.2,45.4L78,40.2l5.2-5.2l5.2,5.2L83.2,45.4z"/>
</svg>
